<svg xmlns="http://www.w3.org/2000/svg" width="36" height="36" viewBox="0 0 36 36" role="img" aria-labelledby="choose-identity-title">
  <title id="choose-identity-title">Choose identity</title>
  <rect x="0.5" y="0.5" width="35" height="35" rx="3" fill="#424242" stroke="#757575"/>
  <svg x="7" y="7" width="22" height="22" viewBox="0 -960 960 960" fill="rgba(255,255,255,0.87)" color="rgba(255,255,255,0.87)">
    <path d="M464-376 306-533q-2-2-3.5-4.76-1.5-2.77-1.5-5.92 0-6.32 4.13-10.82 4.12-4.5 10.87-4.5h328q6.75 0 10.88 4.64 4.12 4.63 4.12 10.81 0 1.55-5 10.55L496-376q-3 3-7.06 5t-8.94 2q-4.87 0-8.94-2-4.06-2-7.06-5Z"/>
  </svg>
</svg>
